<svg xmlns="http://www.w3.org/2000/svg" viewBox="0 0 1200 630" fill="none">
  <rect width="1200" height="630" fill="#1a1a2e"/>
  <rect width="1200" height="6" fill="#c41e3a"/>
  <!-- Globo decorativo -->
  <circle cx="200" cy="315" r="120" fill="none" stroke="#e8b923" stroke-width="2" opacity="0.3"/>
  <circle cx="200" cy="315" r="80" fill="none" stroke="#e8b923" stroke-width="1.5" opacity="0.5"/>
  <ellipse cx="200" cy="315" rx="40" ry="80" fill="none" stroke="#e8b923" stroke-width="1" opacity="0.5"/>
  <line x1="80" y1="315" x2="320" y2="315" stroke="#e8b923" stroke-width="1" opacity="0.5"/>
  <!-- Logo central -->
  <g transform="translate(380, 180)">
    <circle cx="60" cy="60" r="55" fill="#c41e3a" opacity="0.15"/>
    <circle cx="60" cy="60" r="45" fill="none" stroke="#e8b923" stroke-width="2"/>
    <ellipse cx="60" cy="60" rx="20" ry="45" fill="none" stroke="#e8b923" stroke-width="1.5"/>
    <line x1="15" y1="60" x2="105" y2="60" stroke="#e8b923" stroke-width="1.5"/>
    <rect x="78" y="35" width="30" height="40" rx="4" fill="#c41e3a"/>
    <line x1="84" y1="44" x2="102" y2="44" stroke="#fff" stroke-width="2" stroke-linecap="round"/>
    <line x1="84" y1="52" x2="102" y2="52" stroke="#fff" stroke-width="2" stroke-linecap="round"/>
    <line x1="84" y1="60" x2="96" y2="60" stroke="#fff" stroke-width="2" stroke-linecap="round"/>
  </g>
  <text x="560" y="280" font-family="Georgia, serif" font-size="72" font-weight="900" fill="#c41e3a">Mundo News</text>
  <text x="560" y="340" font-family="Arial, sans-serif" font-size="28" fill="#e8b923">= A verdade em primeiro lugar</text>
  <text x="560" y="400" font-family="Arial, sans-serif" font-size="22" fill="#ffffff" opacity="0.8">< Brasil  "  < Mundo  "  =¨ Opini„o  "  =ƒ Artigos</text>
  <text x="560" y="450" font-family="Arial, sans-serif" font-size="18" fill="#ffffff" opacity="0.6">=4 Cobertura em tempo real  "  =· Correspondentes globais</text>
  <rect y="624" width="1200" height="6" fill="#c41e3a"/>
</svg>
